<?xml version="1.0" encoding="UTF-8"?>
<svg id="app_icon" data-name="app_icon" xmlns="http://www.w3.org/2000/svg" viewBox="0 0 250 250">
  <defs>
    <style>
      .cls-1 {
        fill: none;
        stroke: #fbcb04;
        stroke-miterlimit: 4;
        stroke-width: 3px;
      }

      .cls-2 {
        fill: #fbcb04;
      }
    </style>
  </defs>
  <path class="cls-2" d="M74.45,79.88c-10.48,0-19,8.52-19,19v78.33c0,10.48,8.52,19,19,19h21l10.11-52h-29.18c-3.03,0-5.5-2.47-5.5-5.5v-19.48c0-3.03,2.47-5.5,5.5-5.5h35.1l2.86-14.71c-.91,.91-2.16,1.48-3.55,1.48h-16.72c-2.76,0-5-2.24-5-5v-1.55c0-2.76,2.24-5,5-5h16.72c2.29,0,4.2,1.55,4.79,3.65l2.47-12.73h-43.61Zm6.86,91.58c4.28,0,7.76,2.78,7.76,6.19s-3.48,6.19-7.76,6.19-7.76-2.78-7.76-6.19,3.48-6.19,7.76-6.19Z"/>
  <line class="cls-1" x1="100.61" y1="80.44" x2="87.68" y2="51.57"/>
  <path class="cls-2" d="M70.74,58.07c-.73,.38-1.66,.11-2.07-.61-.41-.72-.15-1.61,.59-2l1.49,2.61Zm5.73-6.37l1.33-.69,1.49,2.61-1.33,.69-1.49-2.61Zm-7.21,3.76l7.21-3.76,1.49,2.61-7.21,3.76-1.49-2.61Z"/>
  <line class="cls-1" x1="101.47" y1="80.96" x2="114.41" y2="52.08"/>
  <path class="cls-2" d="M93.04,208.58H60.15l3.59-5.25h30.32l.58-3h-28.85l4.24-6.19c.47-.68,.29-1.62-.39-2.08-.68-.47-1.62-.29-2.08,.39l-14.68,21.45c-.47,.68-.29,1.62,.39,2.08,.26,.18,.55,.26,.85,.26,.48,0,.95-.23,1.24-.65l2.74-4.01h34.36l.58-3Z"/>
  <polygon class="cls-2" points="123.05 54.2 123.65 51.13 123.55 51.08 123.55 51 77.86 51 77.86 54 122.68 54 123.05 54.2"/>
  <path class="cls-2" d="M181.37,28l-36.5,182.48c3.39,.52,6.92,.24,10.38-.82,3.46-1.06,6.79-2.89,9.8-5.37,3.01-2.48,5.63-5.58,7.72-9.1,2.09-3.53,3.61-7.42,4.47-11.45L207.89,28h-26.52Z"/>
  <path class="cls-2" d="M135.21,28l-40.93,205.72c3.32,.83,6.81,.7,10.26-.38s6.81-3.08,9.87-5.89c3.06-2.81,5.77-6.38,7.97-10.5,2.2-4.12,3.85-8.71,4.86-13.52l.09-.29L161.75,28h-26.54Z"/>
</svg>