<?xml version="1.0" encoding="iso-8859-1"?>
<svg height="40" viewBox="0 0 416 416" width="40" xmlns="http://www.w3.org/2000/svg">
  <path d="M120,364v24c0,11.2-8.8,20-20,20h-8c-11.2,0-20-8.8-20-20v-28" style="fill:#939598;"/>
  <path d="M100,416h-8c-15.6,0-28-12.4-28-28v-28c0-4.4,3.6-8,8-8s8,3.6,8,8v28c0,6.8,5.2,12,12,12h8
	c6.8,0,12-5.2,12-12v-24c0-4.4,3.6-8,8-8s8,3.6,8,8v24C128,403.6,115.6,416,100,416z" style="fill:#6D6E71;"/>
  <path d="M296,364v24c0,11.2,8.8,20,20,20h8c11.2,0,20-8.8,20-20v-28" style="fill:#939598;"/>
  <path d="M324,416h-8c-15.6,0-28-12.4-28-28v-24c0-4.4,3.6-8,8-8s8,3.6,8,8v24c0,6.8,5.2,12,12,12h8
	c6.8,0,12-5.2,12-12v-28c0-4.4,3.6-8,8-8s8,3.6,8,8v28C352,403.6,339.6,416,324,416z" style="fill:#6D6E71;"/>
  <path d="M56,40C56,22.4,70.4,8,88,8h240c17.6,0,32,14.4,32,32v288c0,17.6-14.4,32-32,32H92
	c-17.6,0-36-14.4-36-32V40z" style="fill:#9CE0FF;"/>
  <g>
    <path d="M328,368H92c-20.8,0-44-17.2-44-40V40C48,18,66,0,88,0h240c22,0,40,18,40,40v288
		C368,350,350,368,328,368z M88,16c-13.2,0-24,10.8-24,24v288c0,13.2,15.2,24,28,24h236c13.2,0,24-10.8,24-24V40
		c0-13.2-10.8-24-24-24L88,16L88,16z" style="fill:#61A1DD;"/>
    <path d="M360,80H56c-4.4,0-8-3.6-8-8s3.6-8,8-8h304c4.4,0,8,3.6,8,8C368,76.4,364.4,80,360,80z"
          style="fill:#61A1DD;"/>
  </g>
  <path d="M208,48h-52c-4.4,0-8-3.6-8-8s3.6-8,8-8h52c4.4,0,8,3.6,8,8S212.4,48,208,48z" style="fill:#FFFFFF;"/>
  <path d="M356,256H56c-4.4,0-8-3.6-8-8s3.6-8,8-8h300c4.4,0,8,3.6,8,8S360.4,256,356,256z" style="fill:#61A1DD;"/>
  <path d="M256,48h-12c-4.4,0-8-3.6-8-8s3.6-8,8-8h12c4.4,0,8,3.6,8,8S260.4,48,256,48z" style="fill:#FFFFFF;"/>
  <circle cx="116" cy="300" r="24" style="fill:#FFE53C;"/>
  <path d="M116,332c-17.6,0-32-14.4-32-32s14.4-32,32-32s32,14.4,32,32S133.6,332,116,332z M116,284
	c-8.8,0-16,7.2-16,16s7.2,16,16,16s16-7.2,16-16S124.8,284,116,284z" style="fill:#61A1DD;"/>
  <circle cx="300" cy="300" r="24" style="fill:#FFE53C;"/>
  <path d="M300,332c-17.6,0-32-14.4-32-32s14.4-32,32-32s32,14.4,32,32S317.6,332,300,332z M300,284
	c-8.8,0-16,7.2-16,16s7.2,16,16,16s16-7.2,16-16S308.8,284,300,284z" style="fill:#61A1DD;"/>
  <rect height="160" style="fill:#9CE0FF;" width="288" x="64" y="80"/>
</svg>
