<?xml version="1.0" encoding="utf-8"?>
<svg height="40" viewBox="0 0 435.2 435.2" width="40" xmlns="http://www.w3.org/2000/svg">
  <path d="M341.6,400h-248c-4.4,0-8-3.6-8-8s3.6-8,8-8h248c4.4,0,8,3.6,8,8S346,400,341.6,400z" style="fill:#6EA62A;"/>
  <g>
    <path d="M319.6,435.2c-2.8,0-5.6-1.6-7.2-4.4l-34-67.2c-2-4-0.4-8.8,3.6-10.8s8.8-0.4,10.8,3.6l34,67.2
		c2,4,0.4,8.8-3.6,10.8C322,434.8,320.8,435.2,319.6,435.2z" style="fill:#6D6E71;"/>
    <path d="M117.2,435.2c-1.2,0-2.4-0.4-3.6-0.8c-4-2-5.6-6.8-3.6-10.8l34-67.2c2-4,6.8-5.6,10.8-3.6
		s5.6,6.8,3.6,10.8l-34,67.2C122.8,433.6,120,435.2,117.2,435.2z" style="fill:#6D6E71;"/>
  </g>
  <path d="M65.6,40c0-17.6,14.4-32,32-32h240c17.6,0,32,14.4,32,32v288c0,17.6-14.4,32-32,32h-236
	c-17.6,0-36-14.4-36-32V40z" style="fill:#80D440;"/>
  <g>
    <path d="M337.6,368h-236c-20.8,0-44-17.2-44-40V40c0-22,18-40,40-40h240c22,0,40,18,40,40v288
		C377.6,350,359.6,368,337.6,368z M97.6,16c-13.2,0-24,10.8-24,24v288c0,13.2,15.2,24,28,24h236c13.2,0,24-10.8,24-24V40
		c0-13.2-10.8-24-24-24L97.6,16L97.6,16z" style="fill:#6EA62A;"/>
    <path d="M365.6,256h-300c-4.4,0-8-3.6-8-8s3.6-8,8-8h300c4.4,0,8,3.6,8,8S370,256,365.6,256z" style="fill:#6EA62A;"/>
  </g>
  <circle cx="129.6" cy="300" r="24" style="fill:#FFFFFF;"/>
  <path d="M129.6,332c-17.6,0-32-14.4-32-32s14.4-32,32-32s32,14.4,32,32S147.2,332,129.6,332z M129.6,284
	c-8.8,0-16,7.2-16,16s7.2,16,16,16s16-7.2,16-16S138.4,284,129.6,284z" style="fill:#6EA62A;"/>
  <circle cx="305.6" cy="300" r="24" style="fill:#FFFFFF;"/>
  <path d="M305.6,332c-17.6,0-32-14.4-32-32s14.4-32,32-32s32,14.4,32,32S323.2,332,305.6,332z M305.6,284
	c-8.8,0-16,7.2-16,16s7.2,16,16,16s16-7.2,16-16S314.4,284,305.6,284z" style="fill:#6EA62A;"/>
  <rect height="168" style="fill:#9CE0FF;" width="288" x="73.6" y="72"/>
  <path d="M369.6,80h-304c-4.4,0-8-3.6-8-8s3.6-8,8-8h304c4.4,0,8,3.6,8,8C377.6,76.4,374,80,369.6,80z"
        style="fill:#6EA62A;"/>
  <g>
    <path d="M213.6,48h-36c-4.4,0-8-3.6-8-8s3.6-8,8-8h36c4.4,0,8,3.6,8,8S218,48,213.6,48z" style="fill:#ffffff;"/>
    <path d="M253.6,48h-12c-4.4,0-8-3.6-8-8s3.6-8,8-8h12c4.4,0,8,3.6,8,8S258,48,253.6,48z" style="fill:#ffffff;"/>
  </g>
</svg>
