<?xml version="1.0" encoding="utf-8"?>
<svg height="40" viewBox="0 0 336 336" width="40" xmlns="http://www.w3.org/2000/svg">
  <path d="M72,276v24c0,11.2-8.8,20-20,20h-8c-11.2,0-20-8.8-20-20v-28" style="fill:#939598;"/>
  <path d="M52,328h-8c-15.6,0-28-12.4-28-28v-28c0-4.4,3.6-8,8-8c4.4,0,8,3.6,8,8v28c0,6.8,5.2,12,12,12h8
	c6.8,0,12-5.2,12-12v-24c0-4.4,3.6-8,8-8s8,3.6,8,8v24C80,315.6,67.6,328,52,328z" style="fill:#6D6E71;"/>
  <path d="M264,276v24c0,11.2,8.8,20,20,20h8c11.2,0,20-8.8,20-20v-28" style="fill:#939598;"/>
  <path d="M292,328h-8c-15.6,0-28-12.4-28-28v-24c0-4.4,3.6-8,8-8s8,3.6,8,8v24c0,6.8,5.2,12,12,12h8
	c6.8,0,12-5.2,12-12v-28c0-4.4,3.6-8,8-8s8,3.6,8,8v28C320,315.6,307.6,328,292,328z" style="fill:#6D6E71;"/>
  <path d="M28,124l18.4-82.8C49.6,26.4,62.8,16,77.6,16h176.8c14.8,0,28,10.4,31.2,25.2L304,124" style="fill:#9CE0FF;"/>
  <path d="M28,132c-0.4,0-1.2,0-1.6,0c-4.4-0.8-7.2-5.2-6-9.6l18.4-82.8C42.8,21.2,59.2,8,78,8h176.8
	C273.6,8,290,21.2,294,39.6l18.4,82.8c0.8,4.4-1.6,8.4-6,9.6c-4.4,0.8-8.4-1.6-9.6-6l-18.4-82.8C276,32.4,266,24.4,255.2,24.4H77.6
	c-11.2,0-21.2,8-23.2,18.8L36,125.6C34.8,129.6,31.6,132,28,132z" style="fill:#61A1DD;"/>
  <path d="M8,160c0-17.6,14.4-32,32-32h256c17.6,0,32,14.4,32,32v80c0,17.6-14.4,32-32,32H44
	c-17.6,0-36-14.4-36-32V160z" style="fill:#FF793B;"/>
  <path d="M296,280H44c-20.8,0-44-17.2-44-40v-80c0-22,18-40,40-40h256c22,0,40,18,40,40v80
	C336,262,318,280,296,280z M40,136c-13.2,0-24,10.8-24,24v80c0,13.2,15.2,24,28,24h252c13.2,0,24-10.8,24-24v-80
	c0-13.2-10.8-24-24-24H40z" style="fill:#C6490F;"/>
  <circle cx="68" cy="196" r="24" style="fill:#FFE53C;"/>
  <path d="M68,228c-17.6,0-32-14.4-32-32s14.4-32,32-32s32,14.4,32,32S85.6,228,68,228z M68,180
	c-8.8,0-16,7.2-16,16s7.2,16,16,16s16-7.2,16-16S76.8,180,68,180z" style="fill:#C6490F;"/>
  <circle cx="268" cy="196" r="24" style="fill:#FFE53C;"/>
  <path d="M268,228c-17.6,0-32-14.4-32-32s14.4-32,32-32s32,14.4,32,32S285.6,228,268,228z M268,180
	c-8.8,0-16,7.2-16,16s7.2,16,16,16s16-7.2,16-16S276.8,180,268,180z" style="fill:#C6490F;"/>
</svg>
